<svg width="36" height="36" viewBox="0 0 36 36" fill="none" xmlns="http://www.w3.org/2000/svg">
<circle cx="18" cy="18" r="18" fill="#0059FB"/>
<path d="M17.2929 25.7071C17.6834 26.0976 18.3166 26.0976 18.7071 25.7071L25.0711 19.3431C25.4616 18.9526 25.4616 18.3195 25.0711 17.9289C24.6805 17.5384 24.0474 17.5384 23.6569 17.9289L18 23.5858L12.3431 17.9289C11.9526 17.5384 11.3195 17.5384 10.9289 17.9289C10.5384 18.3195 10.5384 18.9526 10.9289 19.3431L17.2929 25.7071ZM19 10C19 9.44771 18.5523 9 18 9C17.4477 9 17 9.44771 17 10L19 10ZM19 25L19 10L17 10L17 25L19 25Z" fill="white"/>
</svg>
