<svg width="56" height="44" viewBox="0 0 56 44" fill="none" xmlns="http://www.w3.org/2000/svg">
<path d="M0 21.8689C0 9.79105 9.79105 0 21.8689 0H34.1311C46.209 0 56 9.79105 56 21.8689C56 33.9468 46.209 43.7378 34.1311 43.7378H21.8689C9.79105 43.7378 0 33.9468 0 21.8689Z" fill="#36B100"/>
<path fill-rule="evenodd" clip-rule="evenodd" d="M26.0568 25.9919C26.8498 26.7563 26.8693 28.0149 26.1003 28.8032L18.4426 36.6529C17.6737 37.4412 16.4075 37.4605 15.6145 36.6961C14.8216 35.9318 14.8021 34.6731 15.5711 33.8849L23.2287 26.0351C23.9977 25.2469 25.2639 25.2275 26.0568 25.9919Z" fill="white"/>
<path fill-rule="evenodd" clip-rule="evenodd" d="M26.753 25.2783C30.3213 28.718 36.0191 28.6309 39.4794 25.0838C42.9397 21.5367 42.8521 15.8729 39.2838 12.4332C35.7154 8.99356 30.0176 9.08063 26.5573 12.6277C23.0971 16.1748 23.1847 21.8386 26.753 25.2783ZM24.6645 27.4191C29.4223 32.0054 37.0194 31.8893 41.6331 27.1598C46.2468 22.4304 46.13 14.8786 41.3722 10.2924C36.6144 5.70616 29.0174 5.82226 24.4037 10.5517C19.79 15.2811 19.9068 22.8329 24.6645 27.4191Z" fill="white"/>
</svg>
